<svg width="187" height="24" viewBox="0 0 187 24" fill="none" xmlns="http://www.w3.org/2000/svg">
<path d="M1.22677 23C1.01587 23 0.836605 22.9262 0.688975 22.7786C0.541345 22.6309 0.46753 22.4517 0.46753 22.2408V1.64637C0.46753 1.41438 0.5308 1.22457 0.65734 1.07694C0.80497 0.929314 0.99478 0.855498 1.22677 0.855498H4.10556C4.33755 0.855498 4.51681 0.929314 4.64335 1.07694C4.79098 1.22457 4.8648 1.41438 4.8648 1.64637V9.8082H14.1971V1.64637C14.1971 1.41438 14.2604 1.22457 14.3869 1.07694C14.5346 0.929314 14.7244 0.855498 14.9564 0.855498H17.8035C18.0355 0.855498 18.2253 0.929314 18.3729 1.07694C18.5206 1.22457 18.5944 1.41438 18.5944 1.64637V22.2408C18.5944 22.4727 18.5206 22.6626 18.3729 22.8102C18.2253 22.9367 18.0355 23 17.8035 23H14.9564C14.7455 23 14.5662 22.9262 14.4186 22.7786C14.2709 22.6309 14.1971 22.4517 14.1971 22.2408V13.7626H4.8648V22.2408C4.8648 22.4517 4.79098 22.6309 4.64335 22.7786C4.51681 22.9262 4.33755 23 4.10556 23H1.22677ZM25.2734 23C25.0625 23 24.8832 22.9262 24.7356 22.7786C24.5879 22.6309 24.5141 22.4517 24.5141 22.2408V1.64637C24.5141 1.41438 24.5774 1.22457 24.7039 1.07694C24.8516 0.929314 25.0414 0.855498 25.2734 0.855498H39.1928C39.4248 0.855498 39.6146 0.929314 39.7622 1.07694C39.9098 1.22457 39.9836 1.41438 39.9836 1.64637V3.73428C39.9836 3.96627 39.9098 4.15608 39.7622 4.30371C39.6146 4.43025 39.4248 4.49352 39.1928 4.49352H28.7848V10.0929H38.4968C38.7288 10.0929 38.9186 10.1667 39.0662 10.3144C39.2139 10.4409 39.2877 10.6202 39.2877 10.8522V12.8135C39.2877 13.0455 39.2139 13.2353 39.0662 13.383C38.9186 13.5095 38.7288 13.5728 38.4968 13.5728H28.7848V19.362H39.4458C39.6778 19.362 39.8676 19.4358 40.0153 19.5834C40.1629 19.731 40.2367 19.9209 40.2367 20.1528V22.2408C40.2367 22.4727 40.1629 22.6626 40.0153 22.8102C39.8676 22.9367 39.6778 23 39.4458 23H25.2734ZM43.833 23C43.6643 23 43.5061 22.9367 43.3585 22.8102C43.2319 22.6836 43.1687 22.5255 43.1687 22.3357L43.2319 22.0509L50.856 1.64637C51.0036 1.11912 51.3727 0.855498 51.9632 0.855498H55.4114C55.9598 0.855498 56.3288 1.11912 56.5186 1.64637L64.1427 22.0509C64.1638 22.1142 64.1743 22.2091 64.1743 22.3357C64.1743 22.5255 64.111 22.6836 63.9845 22.8102C63.858 22.9367 63.7103 23 63.5416 23H60.7894C60.5152 23 60.3043 22.9367 60.1567 22.8102C60.009 22.6836 59.9141 22.5466 59.872 22.3989L58.3851 18.5395H48.9895L47.5027 22.3989C47.334 22.7996 47.0281 23 46.5853 23H43.833ZM57.2779 14.9014L53.6715 5.12622L50.0967 14.9014H57.2779ZM68.887 23C68.6761 23 68.4968 22.9262 68.3492 22.7786C68.2016 22.6309 68.1277 22.4517 68.1277 22.2408V1.61474C68.1277 1.38275 68.2016 1.20348 68.3492 1.07694C68.4968 0.929314 68.6761 0.855498 68.887 0.855498H71.829C72.061 0.855498 72.2403 0.929314 72.3668 1.07694C72.5145 1.20348 72.5883 1.38275 72.5883 1.61474V19.2354H82.6166C82.8486 19.2354 83.0384 19.3092 83.186 19.4569C83.3336 19.6045 83.4074 19.7943 83.4074 20.0263V22.2408C83.4074 22.4727 83.3336 22.6626 83.186 22.8102C83.0384 22.9367 82.8486 23 82.6166 23H68.887ZM89.5259 23C89.315 23 89.1357 22.9262 88.9881 22.7786C88.8405 22.6309 88.7667 22.4517 88.7667 22.2408V4.7466H82.9142C82.7033 4.7466 82.524 4.67279 82.3764 4.52516C82.2288 4.37753 82.1549 4.19826 82.1549 3.98736V1.64637C82.1549 1.41438 82.2182 1.22457 82.3447 1.07694C82.4924 0.929314 82.6822 0.855498 82.9142 0.855498H99.048C99.28 0.855498 99.4698 0.929314 99.6175 1.07694C99.7651 1.22457 99.8389 1.41438 99.8389 1.64637V3.98736C99.8389 4.19826 99.7651 4.37753 99.6175 4.52516C99.4698 4.67279 99.28 4.7466 99.048 4.7466H93.2272V22.2408C93.2272 22.4517 93.1534 22.6309 93.0057 22.7786C92.8581 22.9262 92.6683 23 92.4363 23H89.5259ZM112.189 23.3164C109.278 23.3164 107.022 22.5677 105.419 21.0703C103.837 19.5729 102.993 17.4639 102.888 14.7433C102.867 14.1738 102.856 13.2459 102.856 11.9594C102.856 10.6518 102.867 9.70275 102.888 9.11223C102.993 6.41271 103.848 4.31426 105.45 2.81687C107.074 1.29839 109.32 0.539149 112.189 0.539149C114.066 0.539149 115.7 0.866044 117.092 1.51983C118.484 2.15253 119.56 3.02777 120.319 4.14554C121.078 5.24222 121.479 6.48653 121.521 7.87847V7.94174C121.521 8.11046 121.447 8.25809 121.3 8.38463C121.173 8.49008 121.025 8.5428 120.857 8.5428H117.851C117.598 8.5428 117.408 8.49008 117.282 8.38463C117.155 8.27918 117.05 8.07882 116.966 7.78356C116.628 6.45489 116.069 5.52693 115.289 4.99968C114.509 4.45134 113.465 4.17717 112.157 4.17717C109.12 4.17717 107.538 5.87492 107.412 9.27041C107.391 9.83984 107.38 10.7151 107.38 11.8961C107.38 13.0772 107.391 13.9735 107.412 14.5851C107.538 17.9806 109.12 19.6783 112.157 19.6783C113.465 19.6783 114.509 19.4042 115.289 18.8558C116.09 18.3075 116.649 17.3795 116.966 16.0719C117.029 15.7767 117.124 15.5763 117.25 15.4709C117.398 15.3654 117.598 15.3127 117.851 15.3127H120.857C121.046 15.3127 121.205 15.376 121.331 15.5025C121.479 15.629 121.542 15.7872 121.521 15.977C121.479 17.369 121.078 18.6238 120.319 19.7416C119.56 20.8383 118.484 21.7135 117.092 22.3673C115.7 23 114.066 23.3164 112.189 23.3164ZM124.665 23C124.497 23 124.338 22.9367 124.191 22.8102C124.064 22.6836 124.001 22.5255 124.001 22.3357L124.064 22.0509L131.688 1.64637C131.836 1.11912 132.205 0.855498 132.795 0.855498H136.244C136.792 0.855498 137.161 1.11912 137.351 1.64637L144.975 22.0509C144.996 22.1142 145.007 22.2091 145.007 22.3357C145.007 22.5255 144.943 22.6836 144.817 22.8102C144.69 22.9367 144.543 23 144.374 23H141.622C141.347 23 141.137 22.9367 140.989 22.8102C140.841 22.6836 140.746 22.5466 140.704 22.3989L139.217 18.5395H129.822L128.335 22.3989C128.166 22.7996 127.86 23 127.418 23H124.665ZM138.11 14.9014L134.504 5.12622L130.929 14.9014H138.11ZM149.719 23C149.508 23 149.329 22.9262 149.181 22.7786C149.034 22.6309 148.96 22.4517 148.96 22.2408V1.64637C148.96 1.41438 149.023 1.22457 149.15 1.07694C149.297 0.929314 149.487 0.855498 149.719 0.855498H157.913C160.486 0.855498 162.5 1.45656 163.955 2.65869C165.431 3.86082 166.169 5.56911 166.169 7.78356C166.169 9.32313 165.79 10.6202 165.031 11.6747C164.292 12.7081 163.259 13.4568 161.93 13.9208L166.549 21.9877C166.612 22.1142 166.644 22.2302 166.644 22.3357C166.644 22.5255 166.57 22.6836 166.423 22.8102C166.296 22.9367 166.148 23 165.98 23H163.101C162.763 23 162.5 22.9262 162.31 22.7786C162.141 22.6309 161.983 22.42 161.835 22.1459L157.755 14.6484H153.357V22.2408C153.357 22.4517 153.283 22.6309 153.136 22.7786C153.009 22.9262 152.83 23 152.598 23H149.719ZM157.818 11.0736C159.083 11.0736 160.032 10.7889 160.665 10.2195C161.319 9.65003 161.646 8.82752 161.646 7.75193C161.646 6.67634 161.319 5.84328 160.665 5.25276C160.032 4.66224 159.083 4.36698 157.818 4.36698H153.357V11.0736H157.818ZM172.005 23C171.794 23 171.615 22.9262 171.467 22.7786C171.319 22.6309 171.246 22.4517 171.246 22.2408V1.64637C171.246 1.41438 171.309 1.22457 171.435 1.07694C171.583 0.929314 171.773 0.855498 172.005 0.855498H185.924C186.156 0.855498 186.346 0.929314 186.494 1.07694C186.641 1.22457 186.715 1.41438 186.715 1.64637V3.73428C186.715 3.96627 186.641 4.15608 186.494 4.30371C186.346 4.43025 186.156 4.49352 185.924 4.49352H175.516V10.0929H185.228C185.46 10.0929 185.65 10.1667 185.798 10.3144C185.945 10.4409 186.019 10.6202 186.019 10.8522V12.8135C186.019 13.0455 185.945 13.2353 185.798 13.383C185.65 13.5095 185.46 13.5728 185.228 13.5728H175.516V19.362H186.177C186.409 19.362 186.599 19.4358 186.747 19.5834C186.894 19.731 186.968 19.9209 186.968 20.1528V22.2408C186.968 22.4727 186.894 22.6626 186.747 22.8102C186.599 22.9367 186.409 23 186.177 23H172.005Z" fill="#40A3F8"/>
</svg>
